<svg id="svg" version="1.1" xmlns="http://www.w3.org/2000/svg" xmlns:xlink="http://www.w3.org/1999/xlink" width="400" height="400" viewBox="0, 0, 400,400"><g id="svgg"><path id="path0" d="M85.200 0.273 C 83.990 0.368,82.829 0.616,82.620 0.823 C 82.411 1.030,81.556 1.200,80.720 1.200 C 79.884 1.200,79.200 1.380,79.200 1.600 C 79.200 1.820,78.570 2.000,77.800 2.000 C 77.030 2.000,76.400 2.180,76.400 2.400 C 76.400 2.620,75.860 2.800,75.200 2.800 C 74.540 2.800,74.000 2.980,74.000 3.200 C 74.000 3.420,73.460 3.600,72.800 3.600 C 72.140 3.600,71.600 3.780,71.600 4.000 C 71.600 4.220,71.060 4.400,70.400 4.400 C 69.740 4.400,69.200 4.580,69.200 4.800 C 69.200 5.020,68.840 5.200,68.400 5.200 C 67.960 5.200,67.600 5.380,67.600 5.600 C 67.600 5.820,67.240 6.000,66.800 6.000 C 66.360 6.000,66.000 6.180,66.000 6.400 C 66.000 6.620,65.766 6.800,65.480 6.800 C 64.744 6.800,62.807 7.741,62.803 8.100 C 62.801 8.265,62.502 8.400,62.138 8.400 C 61.391 8.400,56.272 11.154,56.067 11.667 C 55.993 11.850,55.705 12.000,55.426 12.000 C 55.147 12.000,54.354 12.540,53.663 13.200 C 52.972 13.860,52.208 14.400,51.964 14.400 C 51.720 14.400,51.017 14.940,50.400 15.600 C 49.783 16.260,49.094 16.800,48.867 16.800 C 47.958 16.800,34.800 30.821,34.800 31.790 C 34.800 32.028,34.440 32.483,34.000 32.800 C 33.560 33.117,33.200 33.657,33.200 34.000 C 33.200 34.343,32.840 34.883,32.400 35.200 C 31.960 35.517,31.600 36.097,31.600 36.488 C 31.600 36.880,31.420 37.200,31.200 37.200 C 30.980 37.200,30.800 37.436,30.800 37.725 C 30.800 38.013,30.440 38.636,30.000 39.108 C 29.560 39.580,29.200 40.244,29.200 40.583 C 29.200 40.922,29.020 41.200,28.800 41.200 C 28.580 41.200,28.400 41.560,28.400 42.000 C 28.400 42.440,28.264 42.800,28.098 42.800 C 27.828 42.800,27.430 43.608,26.422 46.200 C 26.251 46.640,25.816 47.681,25.455 48.514 C 25.095 49.346,24.800 50.471,24.800 51.014 C 24.800 51.556,24.620 52.000,24.400 52.000 C 24.180 52.000,24.000 52.540,24.000 53.200 C 24.000 53.860,23.820 54.400,23.600 54.400 C 23.380 54.400,23.200 54.940,23.200 55.600 C 23.200 56.260,23.020 56.800,22.800 56.800 C 22.580 56.800,22.400 57.520,22.400 58.400 C 22.400 59.280,22.220 60.000,22.000 60.000 C 21.780 60.000,21.600 60.900,21.600 62.000 C 21.600 63.100,21.420 64.000,21.200 64.000 C 20.969 64.000,20.800 65.267,20.800 67.000 C 20.800 68.733,20.631 70.000,20.400 70.000 C 20.147 70.000,20.000 72.867,20.000 77.800 C 20.000 82.733,20.147 85.600,20.400 85.600 C 20.631 85.600,20.800 86.867,20.800 88.600 C 20.800 90.333,20.969 91.600,21.200 91.600 C 21.420 91.600,21.600 92.500,21.600 93.600 C 21.600 94.700,21.780 95.600,22.000 95.600 C 22.220 95.600,22.400 96.320,22.400 97.200 C 22.400 98.080,22.580 98.800,22.800 98.800 C 23.020 98.800,23.200 99.329,23.200 99.976 C 23.200 100.623,23.380 101.264,23.600 101.400 C 23.820 101.536,24.000 102.177,24.000 102.824 C 24.000 103.471,24.180 104.000,24.400 104.000 C 24.620 104.000,24.799 104.315,24.798 104.700 C 24.795 105.617,26.114 109.362,26.500 109.533 C 26.665 109.607,26.800 110.012,26.800 110.433 C 26.800 110.855,26.980 111.200,27.200 111.200 C 27.420 111.200,27.600 111.412,27.600 111.672 C 27.600 112.427,29.310 116.000,29.671 116.000 C 29.852 116.000,30.000 116.360,30.000 116.800 C 30.000 117.240,30.180 117.600,30.400 117.600 C 30.620 117.600,30.800 117.920,30.800 118.312 C 30.800 118.703,31.160 119.283,31.600 119.600 C 32.040 119.917,32.400 120.457,32.400 120.800 C 32.400 121.143,32.760 121.683,33.200 122.000 C 33.640 122.317,34.000 122.779,34.000 123.026 C 34.000 123.274,34.360 123.802,34.800 124.200 C 35.240 124.598,35.600 125.090,35.600 125.293 C 35.600 125.497,36.320 126.354,37.200 127.200 C 38.080 128.046,38.800 128.928,38.800 129.162 C 38.800 129.691,46.799 138.000,47.308 138.000 C 47.512 138.000,48.158 138.513,48.745 139.141 C 49.331 139.768,50.438 140.605,51.205 141.000 C 51.972 141.395,52.891 142.052,53.247 142.459 C 53.603 142.867,54.148 143.200,54.459 143.200 C 54.769 143.200,55.283 143.560,55.600 144.000 C 55.917 144.440,56.497 144.800,56.888 144.800 C 57.280 144.800,57.600 144.980,57.600 145.200 C 57.600 145.420,57.870 145.600,58.200 145.600 C 58.530 145.600,58.800 145.759,58.800 145.953 C 58.800 146.148,59.115 146.407,59.500 146.529 C 60.436 146.825,62.566 148.124,62.733 148.500 C 62.807 148.665,63.212 148.800,63.633 148.800 C 64.055 148.800,64.400 148.980,64.400 149.200 C 64.400 149.420,64.940 149.600,65.600 149.600 C 66.260 149.600,66.800 149.780,66.800 150.000 C 66.800 150.220,67.340 150.400,68.000 150.400 C 68.660 150.400,69.200 150.580,69.200 150.800 C 69.200 151.020,70.100 151.200,71.200 151.200 C 72.300 151.200,73.200 151.380,73.200 151.600 C 73.200 151.839,74.733 152.000,77.000 152.000 C 79.267 152.000,80.800 151.839,80.800 151.600 C 80.800 151.380,81.700 151.200,82.800 151.200 C 83.900 151.200,84.800 151.020,84.800 150.800 C 84.800 150.580,85.340 150.400,86.000 150.400 C 86.660 150.400,87.200 150.220,87.200 150.000 C 87.200 149.780,87.650 149.600,88.200 149.600 C 88.750 149.600,89.200 149.420,89.200 149.200 C 89.200 148.980,89.520 148.800,89.912 148.800 C 90.303 148.800,90.888 148.433,91.212 147.984 C 91.730 147.264,91.824 158.558,92.000 243.284 C 92.198 338.611,92.207 339.409,93.000 340.487 C 93.440 341.086,94.025 341.581,94.300 341.587 C 94.575 341.594,94.800 341.780,94.800 342.000 C 94.800 342.220,95.072 342.400,95.405 342.400 C 95.738 342.400,96.374 342.625,96.818 342.900 C 97.418 343.272,97.698 343.283,97.912 342.941 C 98.070 342.689,98.920 342.281,99.800 342.034 C 100.680 341.788,101.809 341.242,102.308 340.822 C 104.539 338.946,104.399 346.307,104.408 230.513 C 104.413 169.193,104.570 122.738,104.777 121.303 C 105.537 116.048,108.591 111.711,113.448 108.991 C 121.700 104.367,116.513 94.286,108.081 98.559 C 98.984 103.169,93.658 111.603,92.814 122.738 C 91.755 136.718,80.706 142.989,68.207 136.704 C 49.652 127.375,37.205 110.014,33.145 87.800 C 32.477 84.142,32.476 71.415,33.145 68.000 C 34.592 60.605,35.625 57.050,37.646 52.504 C 38.061 51.572,38.400 50.662,38.400 50.483 C 38.400 49.703,43.630 41.103,45.991 38.000 C 62.261 16.619,90.724 6.807,115.700 13.970 C 116.525 14.206,117.785 14.558,118.500 14.750 C 132.374 18.487,147.521 30.570,155.826 44.525 C 166.953 63.223,165.173 74.050,149.900 80.561 C 149.075 80.912,147.770 81.470,147.000 81.800 C 146.230 82.130,144.970 82.670,144.200 83.000 C 143.430 83.330,142.215 83.851,141.500 84.157 C 140.785 84.463,139.210 85.158,138.000 85.700 C 136.790 86.243,135.084 86.937,134.209 87.243 C 129.850 88.768,128.126 93.363,130.659 96.705 C 133.022 99.823,135.056 99.802,142.200 96.587 C 142.860 96.290,146.968 94.521,151.329 92.655 C 168.531 85.295,174.468 78.123,174.548 64.600 C 174.644 48.582,160.683 26.044,143.200 13.991 C 140.176 11.906,140.450 11.610,145.400 11.612 C 153.787 11.617,163.344 14.761,169.809 19.642 C 174.709 23.341,178.994 24.028,184.610 22.014 C 199.359 16.725,203.495 15.523,213.400 13.645 C 228.737 10.737,247.798 11.158,263.800 14.758 C 264.680 14.956,266.030 15.241,266.800 15.393 C 267.570 15.544,268.650 15.811,269.200 15.987 C 269.750 16.163,271.010 16.535,272.000 16.814 C 304.643 26.005,333.102 48.646,350.918 79.600 C 354.625 86.042,358.472 94.863,361.035 102.800 C 363.077 109.123,363.076 109.122,363.993 113.200 C 365.625 120.456,365.669 120.705,366.857 129.400 C 367.486 134.007,367.485 152.164,366.854 157.200 C 366.022 163.847,364.572 171.724,363.246 176.800 C 356.450 202.803,342.139 225.293,320.389 244.151 C 311.257 252.069,295.150 261.654,284.000 265.804 C 283.010 266.173,281.840 266.628,281.400 266.816 C 267.118 272.909,236.984 276.502,220.600 274.064 C 213.942 273.074,208.866 272.147,204.600 271.143 C 197.979 269.584,192.023 271.784,188.816 276.975 C 186.783 280.264,186.809 279.747,186.804 316.376 C 186.800 349.866,186.720 352.384,185.505 357.000 C 180.626 375.551,164.246 388.347,145.320 388.393 C 141.198 388.403,135.226 387.242,131.000 385.610 C 121.019 381.756,112.964 374.060,108.168 363.796 C 104.861 356.720,98.236 355.236,95.393 360.933 C 94.511 362.701,95.029 367.600,96.097 367.600 C 96.264 367.600,96.400 367.943,96.400 368.362 C 96.400 369.178,98.001 372.512,98.500 372.733 C 98.665 372.807,98.800 373.122,98.800 373.433 C 98.800 373.745,98.980 374.000,99.200 374.000 C 99.420 374.000,99.600 374.270,99.600 374.600 C 99.600 374.930,99.780 375.200,100.000 375.200 C 100.220 375.200,100.400 375.520,100.400 375.912 C 100.400 376.303,100.760 376.883,101.200 377.200 C 101.640 377.517,102.000 378.007,102.000 378.288 C 102.000 378.569,102.720 379.541,103.600 380.448 C 104.480 381.355,105.200 382.265,105.200 382.470 C 105.200 383.313,112.660 390.094,114.700 391.104 C 115.415 391.458,116.000 391.895,116.000 392.074 C 116.000 392.253,116.278 392.400,116.617 392.400 C 116.956 392.400,117.620 392.760,118.092 393.200 C 118.564 393.640,119.187 394.000,119.475 394.000 C 119.764 394.000,120.000 394.180,120.000 394.400 C 120.000 394.620,120.360 394.800,120.800 394.800 C 121.240 394.800,121.600 394.980,121.600 395.200 C 121.600 395.420,121.960 395.600,122.400 395.600 C 122.840 395.600,123.200 395.780,123.200 396.000 C 123.200 396.220,123.639 396.400,124.176 396.400 C 124.713 396.400,125.264 396.580,125.400 396.800 C 125.536 397.020,125.997 397.200,126.424 397.200 C 126.851 397.200,127.200 397.380,127.200 397.600 C 127.200 397.820,127.639 398.000,128.176 398.000 C 128.713 398.000,129.264 398.180,129.400 398.400 C 129.536 398.620,130.252 398.800,130.990 398.800 C 131.729 398.800,132.408 399.025,132.500 399.300 C 132.743 400.028,158.457 400.028,158.700 399.300 C 158.792 399.025,159.471 398.800,160.210 398.800 C 160.948 398.800,161.664 398.620,161.800 398.400 C 161.936 398.180,162.577 398.000,163.224 398.000 C 163.871 398.000,164.400 397.820,164.400 397.600 C 164.400 397.380,164.760 397.200,165.200 397.200 C 165.640 397.200,166.000 397.020,166.000 396.800 C 166.000 396.580,166.342 396.400,166.759 396.400 C 167.177 396.400,168.572 395.834,169.859 395.141 C 171.147 394.449,172.604 393.684,173.097 393.441 C 173.590 393.199,173.995 392.865,173.997 392.700 C 173.999 392.535,174.270 392.400,174.600 392.400 C 174.930 392.400,175.200 392.242,175.200 392.049 C 175.200 391.855,175.702 391.489,176.315 391.235 C 176.928 390.981,178.210 390.060,179.165 389.187 C 180.120 388.314,181.039 387.600,181.207 387.600 C 181.617 387.600,186.000 383.201,186.000 382.789 C 186.000 382.611,186.720 381.716,187.600 380.800 C 188.480 379.884,189.200 378.982,189.200 378.796 C 189.200 378.610,189.436 378.219,189.724 377.929 C 190.012 377.638,190.775 376.410,191.421 375.200 C 192.066 373.990,192.685 372.910,192.797 372.800 C 193.342 372.263,194.800 369.033,194.800 368.362 C 194.800 367.943,194.980 367.600,195.200 367.600 C 195.420 367.600,195.600 367.240,195.600 366.800 C 195.600 366.360,195.780 366.000,196.000 366.000 C 196.220 366.000,196.400 365.460,196.400 364.800 C 196.400 364.140,196.580 363.600,196.800 363.600 C 197.020 363.600,197.200 362.880,197.200 362.000 C 197.200 361.120,197.380 360.400,197.600 360.400 C 197.820 360.400,198.000 359.601,198.000 358.624 C 198.000 357.647,198.180 356.736,198.400 356.600 C 198.627 356.460,198.800 354.470,198.800 352.000 C 198.800 349.530,198.973 347.540,199.200 347.400 C 199.461 347.239,199.600 336.063,199.600 315.176 L 199.600 283.200 201.200 283.200 C 202.080 283.200,202.800 283.380,202.800 283.600 C 202.800 283.820,203.599 284.000,204.576 284.000 C 205.553 284.000,206.464 284.180,206.600 284.400 C 206.736 284.620,207.636 284.800,208.600 284.800 C 209.564 284.800,210.464 284.980,210.600 285.200 C 210.736 285.420,211.816 285.600,213.000 285.600 C 214.184 285.600,215.264 285.780,215.400 286.000 C 215.536 286.220,217.066 286.400,218.800 286.400 C 220.534 286.400,222.064 286.580,222.200 286.800 C 222.357 287.054,227.396 287.200,236.000 287.200 C 244.604 287.200,249.643 287.054,249.800 286.800 C 249.936 286.580,251.477 286.400,253.224 286.400 C 255.075 286.400,256.400 286.233,256.400 286.000 C 256.400 285.778,257.467 285.600,258.800 285.600 C 260.133 285.600,261.200 285.422,261.200 285.200 C 261.200 284.980,262.179 284.800,263.376 284.800 C 264.573 284.800,265.664 284.620,265.800 284.400 C 265.936 284.180,266.757 284.000,267.624 284.000 C 268.491 284.000,269.200 283.820,269.200 283.600 C 269.200 283.380,269.920 283.200,270.800 283.200 C 271.680 283.200,272.400 283.020,272.400 282.800 C 272.400 282.580,273.030 282.400,273.800 282.400 C 274.570 282.400,275.200 282.220,275.200 282.000 C 275.200 281.780,275.819 281.600,276.576 281.600 C 277.333 281.600,278.064 281.420,278.200 281.200 C 278.336 280.980,278.977 280.800,279.624 280.800 C 280.271 280.800,280.800 280.620,280.800 280.400 C 280.800 280.180,281.239 280.000,281.776 280.000 C 282.313 280.000,282.864 279.820,283.000 279.600 C 283.136 279.380,283.676 279.200,284.200 279.200 C 284.724 279.200,285.264 279.020,285.400 278.800 C 285.536 278.580,285.997 278.400,286.424 278.400 C 286.851 278.400,287.200 278.220,287.200 278.000 C 287.200 277.780,287.639 277.600,288.176 277.600 C 288.713 277.600,289.264 277.420,289.400 277.200 C 289.536 276.980,289.997 276.800,290.424 276.800 C 290.851 276.800,291.200 276.620,291.200 276.400 C 291.200 276.180,291.650 276.000,292.200 276.000 C 292.750 276.000,293.200 275.864,293.200 275.698 C 293.200 275.407,295.231 274.590,297.100 274.129 C 297.595 274.007,298.000 273.748,298.000 273.553 C 298.000 273.359,298.360 273.200,298.800 273.200 C 299.240 273.200,299.600 273.020,299.600 272.800 C 299.600 272.580,299.960 272.400,300.400 272.400 C 300.840 272.400,301.200 272.220,301.200 272.000 C 301.200 271.780,301.560 271.600,302.000 271.600 C 302.440 271.600,302.800 271.420,302.800 271.200 C 302.800 270.980,303.160 270.800,303.600 270.800 C 304.040 270.800,304.400 270.654,304.400 270.475 C 304.400 270.296,305.030 269.902,305.800 269.600 C 306.570 269.298,307.200 268.926,307.200 268.774 C 307.200 268.622,307.740 268.273,308.400 268.000 C 309.060 267.727,309.600 267.345,309.600 267.151 C 309.600 266.958,309.920 266.800,310.312 266.800 C 310.703 266.800,311.283 266.440,311.600 266.000 C 311.917 265.560,312.497 265.200,312.888 265.200 C 313.280 265.200,313.600 265.020,313.600 264.800 C 313.600 264.580,313.920 264.400,314.312 264.400 C 314.703 264.400,315.283 264.040,315.600 263.600 C 315.917 263.160,316.362 262.800,316.588 262.799 C 316.815 262.799,317.630 262.259,318.400 261.600 C 319.170 260.941,319.985 260.401,320.212 260.401 C 320.438 260.400,320.883 260.040,321.200 259.600 C 321.517 259.160,321.924 258.800,322.105 258.800 C 322.456 258.800,323.063 258.338,324.601 256.900 C 325.130 256.405,325.764 256.000,326.008 256.000 C 326.252 256.000,327.329 255.100,328.400 254.000 C 329.471 252.900,330.543 252.000,330.780 252.000 C 331.281 252.000,342.391 240.876,343.951 238.813 C 344.528 238.051,345.855 236.547,346.900 235.473 C 347.945 234.398,348.800 233.339,348.800 233.120 C 348.800 232.901,349.340 232.217,350.000 231.600 C 350.660 230.983,351.200 230.308,351.200 230.099 C 351.200 229.890,351.740 229.154,352.400 228.463 C 353.060 227.772,353.600 226.975,353.600 226.692 C 353.600 226.409,353.960 225.917,354.400 225.600 C 354.840 225.283,355.200 224.821,355.200 224.574 C 355.200 224.326,355.560 223.798,356.000 223.400 C 356.440 223.002,356.800 222.456,356.800 222.187 C 356.800 221.918,357.070 221.474,357.400 221.200 C 357.730 220.926,358.000 220.404,358.000 220.039 C 358.000 219.675,358.360 219.117,358.800 218.800 C 359.240 218.483,359.600 217.903,359.600 217.512 C 359.600 217.120,359.780 216.800,360.000 216.800 C 360.220 216.800,360.400 216.522,360.400 216.183 C 360.400 215.844,360.760 215.180,361.200 214.708 C 361.640 214.236,362.000 213.613,362.000 213.325 C 362.000 213.036,362.180 212.800,362.400 212.800 C 362.620 212.800,362.800 212.440,362.800 212.000 C 362.800 211.560,362.980 211.200,363.200 211.200 C 363.420 211.200,363.600 210.840,363.600 210.400 C 363.600 209.960,363.780 209.600,364.000 209.600 C 364.220 209.600,364.400 209.240,364.400 208.800 C 364.400 208.360,364.546 208.000,364.725 208.000 C 364.904 208.000,365.298 207.370,365.600 206.600 C 365.902 205.830,366.296 205.200,366.475 205.200 C 366.654 205.200,366.800 204.928,366.800 204.595 C 366.800 204.262,366.980 203.632,367.200 203.195 C 367.420 202.758,367.780 202.042,368.000 201.605 C 368.220 201.168,368.400 200.538,368.400 200.205 C 368.400 199.872,368.580 199.600,368.800 199.600 C 369.020 199.600,369.200 199.251,369.200 198.824 C 369.200 198.397,369.380 197.936,369.600 197.800 C 369.820 197.664,370.000 197.113,370.000 196.576 C 370.000 196.039,370.180 195.600,370.400 195.600 C 370.620 195.600,370.800 195.251,370.800 194.824 C 370.800 194.397,370.980 193.936,371.200 193.800 C 371.420 193.664,371.600 193.113,371.600 192.576 C 371.600 192.039,371.780 191.600,372.000 191.600 C 372.220 191.600,372.400 191.161,372.400 190.624 C 372.400 190.087,372.559 189.549,372.754 189.429 C 372.949 189.308,373.198 188.713,373.307 188.105 C 373.417 187.497,373.884 185.650,374.344 184.000 C 374.805 182.350,375.185 180.415,375.191 179.700 C 375.196 178.985,375.380 178.400,375.600 178.400 C 375.820 178.400,376.000 177.680,376.000 176.800 C 376.000 175.920,376.180 175.200,376.400 175.200 C 376.620 175.200,376.800 174.390,376.800 173.400 C 376.800 172.410,376.980 171.600,377.200 171.600 C 377.420 171.600,377.600 170.700,377.600 169.600 C 377.600 168.500,377.780 167.600,378.000 167.600 C 378.229 167.600,378.400 166.400,378.400 164.800 C 378.400 163.200,378.571 162.000,378.800 162.000 C 379.040 162.000,379.200 160.408,379.200 158.024 C 379.200 155.804,379.377 153.938,379.600 153.800 C 379.850 153.646,380.000 149.729,380.000 143.376 C 380.000 136.859,379.856 133.200,379.600 133.200 C 379.359 133.200,379.200 131.533,379.200 129.000 C 379.200 126.467,379.041 124.800,378.800 124.800 C 378.575 124.800,378.400 123.675,378.400 122.224 C 378.400 120.807,378.220 119.536,378.000 119.400 C 377.780 119.264,377.600 118.263,377.600 117.176 C 377.600 116.089,377.420 115.200,377.200 115.200 C 376.980 115.200,376.800 114.300,376.800 113.200 C 376.800 112.100,376.620 111.200,376.400 111.200 C 376.180 111.200,376.000 110.570,376.000 109.800 C 376.000 109.030,375.846 108.400,375.657 108.400 C 375.468 108.400,375.205 107.361,375.073 106.090 C 374.830 103.767,371.861 94.129,371.170 93.420 C 370.967 93.211,370.800 92.626,370.800 92.120 C 370.800 91.614,370.620 91.200,370.400 91.200 C 370.180 91.200,370.000 90.761,370.000 90.224 C 370.000 89.687,369.820 89.136,369.600 89.000 C 369.380 88.864,369.200 88.403,369.200 87.976 C 369.200 87.549,369.020 87.200,368.800 87.200 C 368.580 87.200,368.400 86.840,368.400 86.400 C 368.400 85.960,368.220 85.600,368.000 85.600 C 367.780 85.600,367.601 85.285,367.603 84.900 C 367.607 83.947,363.598 75.959,362.712 75.153 C 362.320 74.797,362.000 74.212,362.000 73.853 C 362.000 73.494,361.820 73.200,361.600 73.200 C 361.380 73.200,361.200 72.840,361.200 72.400 C 361.200 71.960,361.020 71.600,360.800 71.600 C 360.580 71.600,360.400 71.280,360.400 70.888 C 360.400 70.497,360.040 69.917,359.600 69.600 C 359.160 69.283,358.800 68.718,358.800 68.345 C 358.800 67.972,358.665 67.607,358.500 67.533 C 358.335 67.460,357.660 66.366,357.000 65.101 C 356.340 63.837,355.707 62.802,355.594 62.801 C 355.481 62.801,354.944 62.080,354.400 61.200 C 353.856 60.320,353.274 59.600,353.106 59.600 C 352.938 59.600,352.800 59.402,352.800 59.160 C 352.800 58.919,352.260 58.217,351.600 57.600 C 350.940 56.983,350.400 56.263,350.400 56.000 C 350.400 55.737,349.860 55.017,349.200 54.400 C 348.540 53.783,348.000 53.097,348.000 52.874 C 348.000 52.652,346.920 51.373,345.600 50.032 C 344.280 48.692,343.200 47.504,343.200 47.394 C 343.200 46.750,332.988 36.400,332.353 36.400 C 332.134 36.400,330.896 35.320,329.600 34.000 C 328.304 32.680,327.048 31.600,326.809 31.600 C 326.569 31.600,325.773 31.015,325.040 30.300 C 322.697 28.017,318.280 24.800,317.487 24.800 C 317.206 24.800,316.717 24.440,316.400 24.000 C 316.083 23.560,315.543 23.200,315.200 23.200 C 314.857 23.200,314.317 22.840,314.000 22.400 C 313.683 21.960,313.143 21.600,312.800 21.600 C 312.457 21.600,311.917 21.240,311.600 20.800 C 311.283 20.360,310.703 20.000,310.312 20.000 C 309.920 20.000,309.600 19.820,309.600 19.600 C 309.600 19.380,309.306 19.200,308.947 19.200 C 308.588 19.200,308.003 18.871,307.647 18.470 C 307.291 18.068,306.415 17.484,305.700 17.172 C 304.985 16.860,304.400 16.469,304.400 16.302 C 304.400 16.136,304.040 16.000,303.600 16.000 C 303.160 16.000,302.800 15.820,302.800 15.600 C 302.800 15.380,302.440 15.200,302.000 15.200 C 301.560 15.200,301.200 15.020,301.200 14.800 C 301.200 14.580,300.840 14.400,300.400 14.400 C 299.960 14.400,299.600 14.220,299.600 14.000 C 299.600 13.780,299.240 13.600,298.800 13.600 C 298.360 13.600,298.000 13.420,298.000 13.200 C 298.000 12.980,297.640 12.800,297.200 12.800 C 296.760 12.800,296.400 12.620,296.400 12.400 C 296.400 12.180,296.040 12.000,295.600 12.000 C 295.160 12.000,294.800 11.820,294.800 11.600 C 294.800 11.380,294.528 11.200,294.195 11.200 C 293.862 11.200,293.277 11.035,292.895 10.834 C 291.366 10.027,289.271 9.216,287.483 8.738 C 286.447 8.461,285.600 8.091,285.600 7.917 C 285.600 7.743,285.060 7.600,284.400 7.600 C 283.740 7.600,283.200 7.420,283.200 7.200 C 283.200 6.980,282.660 6.800,282.000 6.800 C 281.340 6.800,280.800 6.620,280.800 6.400 C 280.800 6.180,280.260 6.000,279.600 6.000 C 278.940 6.000,278.400 5.820,278.400 5.600 C 278.400 5.380,277.680 5.200,276.800 5.200 C 275.920 5.200,275.200 5.020,275.200 4.800 C 275.200 4.580,274.660 4.400,274.000 4.400 C 273.340 4.400,272.800 4.220,272.800 4.000 C 272.800 3.780,272.181 3.600,271.424 3.600 C 270.667 3.600,269.936 3.420,269.800 3.200 C 269.664 2.980,268.753 2.800,267.776 2.800 C 266.799 2.800,266.000 2.620,266.000 2.400 C 266.000 2.180,265.100 2.000,264.000 2.000 C 262.900 2.000,262.000 1.820,262.000 1.600 C 262.000 1.378,260.944 1.200,259.633 1.200 C 258.096 1.200,257.208 1.025,257.100 0.700 C 256.856 -0.031,214.744 -0.031,214.500 0.700 C 214.394 1.017,213.549 1.200,212.190 1.200 C 211.012 1.200,209.936 1.380,209.800 1.600 C 209.664 1.820,208.753 2.000,207.776 2.000 C 206.799 2.000,206.000 2.180,206.000 2.400 C 206.000 2.620,205.201 2.800,204.224 2.800 C 203.247 2.800,202.336 2.980,202.200 3.200 C 202.064 3.420,201.243 3.600,200.376 3.600 C 199.509 3.600,198.800 3.780,198.800 4.000 C 198.800 4.220,198.260 4.400,197.600 4.400 C 196.940 4.400,196.400 4.580,196.400 4.800 C 196.400 5.020,195.770 5.200,195.000 5.200 C 194.230 5.200,193.600 5.380,193.600 5.600 C 193.600 5.820,193.060 6.000,192.400 6.000 C 191.740 6.000,191.200 6.180,191.200 6.400 C 191.200 6.620,190.660 6.800,190.000 6.800 C 189.340 6.800,188.800 6.980,188.800 7.200 C 188.800 7.420,188.260 7.600,187.600 7.600 C 186.940 7.600,186.400 7.760,186.400 7.955 C 186.400 8.151,185.728 8.437,184.907 8.591 C 184.086 8.745,182.702 9.215,181.832 9.636 C 179.314 10.852,178.477 10.651,175.431 8.100 C 175.102 7.825,174.646 7.600,174.417 7.600 C 174.188 7.600,174.000 7.420,174.000 7.200 C 174.000 6.980,173.640 6.800,173.200 6.800 C 172.760 6.800,172.400 6.620,172.400 6.400 C 172.400 6.180,172.130 6.000,171.800 6.000 C 171.470 6.000,171.200 5.820,171.200 5.600 C 171.200 5.380,170.840 5.200,170.400 5.200 C 169.960 5.200,169.600 5.020,169.600 4.800 C 169.600 4.580,169.240 4.400,168.800 4.400 C 168.360 4.400,168.000 4.220,168.000 4.000 C 168.000 3.780,167.550 3.600,167.000 3.600 C 166.450 3.600,166.000 3.420,166.000 3.200 C 166.000 2.980,165.651 2.800,165.224 2.800 C 164.797 2.800,164.336 2.620,164.200 2.400 C 164.064 2.180,163.434 2.000,162.800 2.000 C 162.166 2.000,161.536 1.820,161.400 1.600 C 161.264 1.380,160.638 1.200,160.010 1.200 C 159.381 1.200,158.792 0.975,158.700 0.700 C 158.571 0.313,155.511 0.200,145.200 0.200 C 134.889 0.200,131.829 0.313,131.700 0.700 C 131.608 0.975,130.929 1.200,130.190 1.200 C 129.452 1.200,128.736 1.380,128.600 1.600 C 128.464 1.820,128.003 2.000,127.576 2.000 C 127.149 2.000,126.799 2.135,126.797 2.300 C 126.793 2.659,124.856 3.600,124.120 3.600 C 123.834 3.600,123.600 3.420,123.600 3.200 C 123.600 2.980,123.071 2.800,122.424 2.800 C 121.777 2.800,121.136 2.620,121.000 2.400 C 120.864 2.180,120.223 2.000,119.576 2.000 C 118.929 2.000,118.400 1.820,118.400 1.600 C 118.400 1.380,117.515 1.200,116.433 1.200 C 115.255 1.200,114.402 1.007,114.306 0.718 C 114.144 0.233,90.336 -0.131,85.200 0.273 M74.800 28.784 C 60.198 31.471,54.469 49.688,64.958 60.076 C 79.777 74.752,103.512 57.863,94.577 39.000 C 91.060 31.574,82.806 27.310,74.800 28.784 M118.684 36.988 C 104.171 42.015,101.579 61.405,114.292 69.844 C 129.899 80.203,149.192 63.553,141.249 46.580 C 137.299 38.138,127.450 33.951,118.684 36.988 M81.279 41.057 C 82.941 41.892,84.473 44.178,84.696 46.155 C 85.451 52.851,77.721 56.578,73.125 51.733 C 67.829 46.149,74.370 37.584,81.279 41.057 M127.251 48.165 C 129.875 49.264,131.314 51.566,131.314 54.663 C 131.314 61.329,122.779 63.853,118.945 58.321 C 115.133 52.820,121.061 45.572,127.251 48.165 M64.042 77.033 C 52.761 80.067,47.134 92.441,52.235 103.000 C 59.397 117.827,80.867 116.568,86.343 101.000 C 91.168 87.284,78.109 73.250,64.042 77.033 M72.708 89.470 C 74.503 90.819,75.264 92.100,75.496 94.158 C 76.354 101.764,65.931 104.763,62.652 97.853 C 59.710 91.652,67.250 85.365,72.708 89.470 M231.200 94.261 C 193.557 97.854,173.833 142.311,196.471 172.539 C 220.227 204.261,270.732 196.257,282.628 158.886 C 283.735 155.408,282.107 150.800,279.771 150.800 C 279.511 150.800,279.074 150.530,278.800 150.200 C 278.239 149.524,274.800 149.352,274.800 150.000 C 274.800 150.220,274.522 150.400,274.182 150.400 C 273.382 150.400,271.600 152.182,271.600 152.982 C 271.600 153.322,271.420 153.600,271.200 153.600 C 270.980 153.600,270.800 154.140,270.800 154.800 C 270.800 155.460,270.620 156.000,270.400 156.000 C 270.180 156.000,270.000 156.349,270.000 156.776 C 270.000 157.203,269.820 157.664,269.600 157.800 C 269.380 157.936,269.200 158.397,269.200 158.824 C 269.200 159.251,269.020 159.600,268.800 159.600 C 268.580 159.600,268.400 159.870,268.400 160.200 C 268.400 160.530,268.220 160.800,268.000 160.800 C 267.780 160.800,267.600 161.070,267.600 161.400 C 267.600 161.730,267.420 162.000,267.200 162.000 C 266.980 162.000,266.800 162.272,266.800 162.604 C 266.800 162.936,266.260 163.772,265.600 164.463 C 264.940 165.154,264.400 165.875,264.400 166.067 C 264.400 166.458,259.352 171.600,258.968 171.600 C 258.832 171.600,258.217 172.140,257.600 172.800 C 256.983 173.460,256.191 174.000,255.840 174.000 C 255.488 174.000,255.200 174.145,255.200 174.323 C 255.200 174.677,252.412 176.000,251.666 176.000 C 251.410 176.000,251.200 176.180,251.200 176.400 C 251.200 176.620,250.851 176.800,250.424 176.800 C 249.997 176.800,249.536 176.980,249.400 177.200 C 249.264 177.420,248.713 177.600,248.176 177.600 C 247.639 177.600,247.200 177.780,247.200 178.000 C 247.200 178.220,246.671 178.400,246.024 178.400 C 245.377 178.400,244.736 178.580,244.600 178.800 C 244.464 179.020,243.564 179.200,242.600 179.200 C 241.636 179.200,240.736 179.380,240.600 179.600 C 240.460 179.827,238.470 180.000,236.000 180.000 C 233.530 180.000,231.540 179.827,231.400 179.600 C 231.264 179.380,230.364 179.200,229.400 179.200 C 228.436 179.200,227.536 179.020,227.400 178.800 C 227.264 178.580,226.533 178.400,225.776 178.400 C 225.019 178.400,224.400 178.220,224.400 178.000 C 224.400 177.780,224.137 177.600,223.815 177.600 C 222.966 177.600,216.800 174.729,216.800 174.334 C 216.800 174.150,216.512 174.000,216.160 174.000 C 215.809 174.000,215.017 173.460,214.400 172.800 C 213.783 172.140,213.077 171.600,212.831 171.600 C 212.201 171.600,208.184 167.512,207.465 166.139 C 207.136 165.513,206.493 164.603,206.034 164.117 C 205.575 163.631,205.200 162.956,205.200 162.617 C 205.200 162.278,205.054 162.000,204.875 162.000 C 204.696 162.000,204.302 161.370,204.000 160.600 C 203.698 159.830,203.304 159.200,203.125 159.200 C 202.946 159.200,202.800 158.840,202.800 158.400 C 202.800 157.960,202.620 157.600,202.400 157.600 C 202.180 157.600,202.000 157.240,202.000 156.800 C 202.000 156.360,201.820 156.000,201.600 156.000 C 201.380 156.000,201.200 155.460,201.200 154.800 C 201.200 154.140,201.020 153.600,200.800 153.600 C 200.580 153.600,200.400 152.880,200.400 152.000 C 200.400 151.120,200.220 150.400,200.000 150.400 C 199.749 150.400,199.600 147.800,199.600 143.400 C 199.600 139.000,199.749 136.400,200.000 136.400 C 200.220 136.400,200.400 135.680,200.400 134.800 C 200.400 133.920,200.580 133.200,200.800 133.200 C 201.020 133.200,201.200 132.660,201.200 132.000 C 201.200 131.340,201.380 130.800,201.600 130.800 C 201.820 130.800,202.000 130.562,202.000 130.271 C 202.000 129.698,204.323 124.728,204.744 124.400 C 204.885 124.290,205.180 123.911,205.400 123.559 C 207.709 119.857,212.657 114.400,213.704 114.400 C 213.990 114.400,214.483 114.040,214.800 113.600 C 215.117 113.160,215.607 112.800,215.888 112.800 C 216.170 112.800,216.400 112.620,216.400 112.400 C 216.400 112.180,216.670 112.000,217.000 112.000 C 217.330 112.000,217.600 111.820,217.600 111.600 C 217.600 111.380,217.960 111.200,218.400 111.200 C 218.840 111.200,219.200 111.020,219.200 110.800 C 219.200 110.580,219.560 110.400,220.000 110.400 C 220.440 110.400,220.800 110.220,220.800 110.000 C 220.800 109.780,221.160 109.600,221.600 109.600 C 222.040 109.600,222.400 109.420,222.400 109.200 C 222.400 108.980,222.814 108.800,223.320 108.800 C 223.826 108.800,224.411 108.632,224.620 108.427 C 225.656 107.409,240.657 106.271,241.732 107.129 C 241.990 107.334,243.232 107.626,244.494 107.779 C 245.755 107.931,246.891 108.223,247.017 108.428 C 247.144 108.633,247.777 108.800,248.424 108.800 C 249.071 108.800,249.600 108.980,249.600 109.200 C 249.600 109.420,249.960 109.600,250.400 109.600 C 250.840 109.600,251.200 109.780,251.200 110.000 C 251.200 110.220,251.560 110.400,252.000 110.400 C 252.440 110.400,252.800 110.580,252.800 110.800 C 252.800 111.020,253.160 111.200,253.600 111.200 C 254.040 111.200,254.400 111.350,254.400 111.532 C 254.400 111.715,254.895 112.119,255.500 112.430 C 256.105 112.740,256.891 113.311,257.247 113.697 C 257.603 114.084,258.010 114.400,258.153 114.400 C 258.637 114.400,264.998 121.012,265.568 122.108 C 265.880 122.709,266.285 123.200,266.468 123.200 C 266.650 123.200,266.800 123.430,266.800 123.712 C 266.800 123.993,267.160 124.483,267.600 124.800 C 268.040 125.117,268.400 125.697,268.400 126.088 C 268.400 126.480,268.580 126.800,268.800 126.800 C 269.020 126.800,269.200 127.160,269.200 127.600 C 269.200 128.040,269.380 128.400,269.600 128.400 C 269.820 128.400,270.000 128.940,270.000 129.600 C 270.000 130.260,270.180 130.800,270.400 130.800 C 270.620 130.800,270.800 131.239,270.800 131.776 C 270.800 132.313,270.980 132.864,271.200 133.000 C 271.420 133.136,271.600 133.515,271.600 133.842 C 271.600 134.623,273.393 136.400,274.182 136.400 C 274.522 136.400,274.800 136.580,274.800 136.800 C 274.800 137.383,278.301 137.292,278.680 136.699 C 278.856 136.424,279.510 135.935,280.134 135.614 C 282.633 134.324,284.148 128.788,282.462 127.102 C 282.208 126.848,282.000 126.361,282.000 126.020 C 281.999 125.679,281.105 123.627,280.011 121.461 C 270.767 103.145,251.370 92.336,231.200 94.261 " stroke="none" fill="#050505" fill-rule="evenodd"></path><path id="path1" d="M229.400 12.039 C 219.927 12.544,210.715 13.950,203.000 16.069 C 197.871 17.477,191.253 19.665,187.398 21.225 C 179.486 24.428,176.496 24.135,169.452 19.467 C 161.716 14.339,156.025 12.454,147.248 12.111 C 140.507 11.848,140.553 11.766,145.400 15.405 C 164.845 30.001,178.236 56.171,174.050 71.400 C 171.172 81.874,165.871 86.692,149.600 93.625 C 134.067 100.243,133.436 100.352,130.536 96.905 L 129.672 95.878 127.336 96.808 C 126.051 97.320,123.920 98.218,122.600 98.805 C 121.280 99.392,119.620 100.122,118.910 100.429 C 117.730 100.939,117.639 101.105,117.839 102.393 C 118.276 105.208,116.860 107.167,112.513 109.759 C 109.079 111.807,107.250 114.060,105.337 118.600 C 105.152 119.040,104.910 168.450,104.800 228.400 C 104.602 336.407,104.593 337.414,103.800 338.974 C 102.856 340.831,101.420 341.974,99.551 342.356 L 98.200 342.632 98.089 348.746 C 98.015 352.852,98.114 354.777,98.389 354.607 C 98.644 354.449,98.800 354.968,98.800 355.976 L 98.800 357.600 100.751 357.600 C 104.829 357.600,105.662 358.311,108.578 364.283 C 114.170 375.735,122.611 382.981,134.641 386.657 C 138.863 387.947,150.349 388.301,154.200 387.259 C 172.067 382.427,182.804 371.010,186.231 353.200 C 186.379 352.430,186.613 335.690,186.750 316.000 L 187.000 280.200 187.902 278.370 C 190.972 272.140,197.691 269.153,204.600 270.947 C 206.721 271.497,212.553 272.653,216.906 273.385 C 252.454 279.365,291.363 268.142,321.382 243.250 C 338.694 228.894,356.052 202.531,361.644 182.100 C 361.840 181.385,362.166 180.215,362.368 179.500 C 362.571 178.785,363.028 177.030,363.384 175.600 C 363.741 174.170,364.195 172.370,364.395 171.600 C 364.595 170.830,364.868 169.570,365.003 168.800 C 365.137 168.030,365.421 166.410,365.633 165.200 C 366.756 158.798,367.185 152.751,367.195 143.200 C 367.205 133.759,367.065 131.569,365.963 123.800 C 365.364 119.581,363.650 111.444,362.803 108.800 C 362.627 108.250,362.086 106.450,361.601 104.800 C 358.948 95.777,352.793 82.123,348.439 75.600 C 348.072 75.050,347.545 74.150,347.269 73.600 C 343.294 65.690,327.297 48.044,316.628 39.800 C 315.774 39.140,314.608 38.223,314.037 37.763 C 313.467 37.302,310.840 35.489,308.200 33.732 C 301.104 29.011,296.406 26.457,287.000 22.205 C 284.671 21.152,281.355 19.916,277.400 18.627 C 273.763 17.442,272.167 16.957,268.600 15.955 C 261.944 14.084,252.083 12.571,244.200 12.211 C 241.340 12.080,238.190 11.916,237.200 11.846 C 236.210 11.776,232.700 11.863,229.400 12.039 M65.703 88.975 C 61.069 91.538,60.867 97.965,65.337 100.584 C 71.994 104.485,78.894 96.029,73.720 90.312 C 72.091 88.511,67.826 87.800,65.703 88.975 M246.000 94.962 C 251.302 96.188,253.438 96.925,258.000 99.105 C 269.025 104.372,278.976 115.872,282.828 127.796 C 283.960 131.301,282.209 136.000,279.771 136.000 C 278.555 136.000,278.322 137.200,278.379 143.188 C 278.423 147.869,278.321 149.201,277.918 149.206 C 277.408 149.212,278.585 149.993,280.247 150.753 C 282.927 151.977,283.944 155.149,282.797 158.706 C 277.674 174.594,263.923 187.407,248.000 191.130 C 247.010 191.361,245.750 191.656,245.200 191.785 C 223.106 196.960,197.796 182.522,189.601 160.068 C 181.655 138.296,191.242 111.483,210.753 100.908 C 211.549 100.476,212.830 99.769,213.600 99.336 C 217.501 97.144,224.194 95.087,230.200 94.234 C 232.671 93.883,243.486 94.381,246.000 94.962 " stroke="none" fill="#fb8ed1" fill-rule="evenodd"></path><path id="path2" d="M90.800 12.196 C 87.086 12.687,86.496 12.796,82.800 13.671 C 68.910 16.960,55.012 26.146,45.991 38.000 C 43.630 41.103,38.400 49.703,38.400 50.483 C 38.400 50.662,38.061 51.572,37.646 52.504 C 35.625 57.050,34.592 60.605,33.145 68.000 C 32.476 71.415,32.477 84.142,33.145 87.800 C 37.205 110.014,49.652 127.375,68.207 136.704 C 80.706 142.989,91.755 136.718,92.814 122.738 C 93.526 113.345,97.088 106.359,103.700 101.389 C 109.952 96.688,114.217 96.262,116.726 100.087 C 117.385 101.091,117.486 101.119,118.611 100.594 C 121.659 99.173,125.214 97.640,127.441 96.786 C 129.843 95.865,129.877 95.830,129.600 94.598 C 128.901 91.501,130.828 88.426,134.209 87.243 C 135.084 86.937,136.790 86.243,138.000 85.700 C 139.210 85.158,140.785 84.463,141.500 84.157 C 142.215 83.851,143.430 83.330,144.200 83.000 C 144.970 82.670,146.230 82.130,147.000 81.800 C 147.770 81.470,149.075 80.912,149.900 80.561 C 165.173 74.050,166.953 63.223,155.826 44.525 C 147.546 30.611,132.465 18.558,118.600 14.773 C 117.940 14.593,116.680 14.241,115.800 13.992 C 108.285 11.866,98.564 11.167,90.800 12.196 M83.314 29.259 C 96.685 33.493,100.979 50.159,91.227 59.969 C 82.008 69.242,66.861 66.632,61.233 54.800 C 54.552 40.754,68.536 24.578,83.314 29.259 M130.403 36.974 C 143.490 41.402,147.389 57.934,137.618 67.563 C 128.506 76.542,113.583 74.044,107.976 62.600 C 100.816 47.985,115.010 31.766,130.403 36.974 M73.148 76.981 C 94.172 82.577,90.688 113.108,69.000 113.322 C 52.359 113.487,43.985 93.702,55.727 81.960 C 60.460 77.227,67.024 75.351,73.148 76.981 " stroke="none" fill="#f8db42" fill-rule="evenodd"></path><path id="path3" d="M143.700 11.894 C 144.745 11.976,146.455 11.976,147.500 11.894 C 148.545 11.812,147.690 11.744,145.600 11.744 C 143.510 11.744,142.655 11.812,143.700 11.894 M230.711 11.893 C 231.651 11.978,233.091 11.977,233.911 11.891 C 234.730 11.805,233.960 11.736,232.200 11.737 C 230.440 11.739,229.770 11.809,230.711 11.893 M237.900 11.889 C 238.615 11.978,239.785 11.978,240.500 11.889 C 241.215 11.801,240.630 11.728,239.200 11.728 C 237.770 11.728,237.185 11.801,237.900 11.889 M76.449 40.417 C 74.621 40.827,73.178 41.963,72.107 43.838 C 68.972 49.320,74.709 55.836,80.529 53.404 C 88.178 50.208,84.532 38.603,76.449 40.417 M122.538 47.906 C 122.284 48.068,123.212 48.200,124.600 48.200 C 125.988 48.200,126.916 48.068,126.662 47.906 C 126.408 47.744,125.480 47.612,124.600 47.612 C 123.720 47.612,122.792 47.744,122.538 47.906 M119.775 49.699 L 118.600 50.997 119.800 50.005 C 120.460 49.459,121.171 48.874,121.380 48.706 C 121.616 48.516,121.606 48.400,121.355 48.400 C 121.132 48.400,120.421 48.984,119.775 49.699 M127.820 48.706 C 128.029 48.874,128.740 49.459,129.400 50.005 L 130.600 50.997 129.425 49.699 C 128.779 48.984,128.068 48.400,127.845 48.400 C 127.594 48.400,127.584 48.516,127.820 48.706 M118.000 56.689 C 118.000 56.921,118.371 57.536,118.824 58.056 L 119.647 59.000 118.945 57.800 C 118.020 56.221,118.000 56.197,118.000 56.689 M130.234 57.700 L 129.608 59.000 130.404 58.056 C 130.842 57.536,131.200 56.951,131.200 56.756 C 131.200 56.072,130.854 56.410,130.234 57.700 M123.413 61.225 C 124.114 61.429,125.126 61.428,125.813 61.223 C 126.812 60.925,126.619 60.869,124.600 60.870 C 122.563 60.872,122.383 60.925,123.413 61.225 M117.693 103.200 C 117.693 103.970,117.775 104.285,117.876 103.900 C 117.976 103.515,117.976 102.885,117.876 102.500 C 117.775 102.115,117.693 102.430,117.693 103.200 M270.400 108.200 C 271.146 108.970,271.847 109.600,271.957 109.600 C 272.067 109.600,271.546 108.970,270.800 108.200 C 270.054 107.430,269.353 106.800,269.243 106.800 C 269.133 106.800,269.654 107.430,270.400 108.200 M104.597 229.600 C 104.597 288.450,104.643 312.525,104.700 283.100 C 104.757 253.675,104.757 205.525,104.700 176.100 C 104.643 146.675,104.597 170.750,104.597 229.600 M367.353 143.000 C 367.353 145.640,367.418 146.668,367.497 145.284 C 367.575 143.901,367.574 141.741,367.495 140.484 C 367.416 139.228,367.352 140.360,367.353 143.000 M234.700 192.682 C 235.195 192.778,236.005 192.778,236.500 192.682 C 236.995 192.587,236.590 192.509,235.600 192.509 C 234.610 192.509,234.205 192.587,234.700 192.682 M327.978 237.100 L 326.600 238.600 328.100 237.222 C 329.496 235.938,329.784 235.600,329.478 235.600 C 329.412 235.600,328.737 236.275,327.978 237.100 M190.575 274.500 L 189.400 275.800 190.700 274.625 C 191.912 273.530,192.184 273.200,191.875 273.200 C 191.806 273.200,191.221 273.785,190.575 274.500 M222.500 274.276 C 222.885 274.376,223.515 274.376,223.900 274.276 C 224.285 274.175,223.970 274.093,223.200 274.093 C 222.430 274.093,222.115 274.175,222.500 274.276 M186.509 350.000 C 186.509 350.990,186.587 351.395,186.682 350.900 C 186.778 350.405,186.778 349.595,186.682 349.100 C 186.587 348.605,186.509 349.010,186.509 350.000 M100.700 357.882 C 101.195 357.978,102.005 357.978,102.500 357.882 C 102.995 357.787,102.590 357.709,101.600 357.709 C 100.610 357.709,100.205 357.787,100.700 357.882 M174.181 376.500 L 172.600 378.200 174.300 376.619 C 175.881 375.148,176.184 374.800,175.881 374.800 C 175.816 374.800,175.051 375.565,174.181 376.500 M143.513 388.295 C 144.676 388.376,146.476 388.376,147.513 388.293 C 148.551 388.211,147.600 388.145,145.400 388.146 C 143.200 388.147,142.351 388.214,143.513 388.295 " stroke="none" fill="#66ccd5" fill-rule="evenodd"></path><path id="path4" d="M121.801 48.607 C 115.432 52.050,117.441 60.800,124.600 60.800 C 133.024 60.800,133.473 48.723,125.071 48.110 C 123.675 48.008,122.609 48.170,121.801 48.607 " stroke="none" fill="#dcb4ec" fill-rule="evenodd"></path></g></svg>